<?xml version="1.0" encoding="UTF-8" standalone="no"?>
<!-- Created with Inkscape (http://www.inkscape.org/) -->

<svg
   version="1.1"
   id="svg2"
   width="298.66666"
   height="142.66667"
   viewBox="0 0 298.66666 142.66667"
   sodipodi:docname="fluminense-football-club-seeklogo.eps"
   xmlns:inkscape="http://www.inkscape.org/namespaces/inkscape"
   xmlns:sodipodi="http://sodipodi.sourceforge.net/DTD/sodipodi-0.dtd"
   xmlns="http://www.w3.org/2000/svg"
   xmlns:svg="http://www.w3.org/2000/svg">
  <defs
     id="defs6" />
  <sodipodi:namedview
     id="namedview4"
     pagecolor="#ffffff"
     bordercolor="#000000"
     borderopacity="0.25"
     inkscape:showpageshadow="2"
     inkscape:pageopacity="0.0"
     inkscape:pagecheckerboard="0"
     inkscape:deskcolor="#d1d1d1" />
  <g
     id="g8"
     inkscape:groupmode="layer"
     inkscape:label="ink_ext_XXXXXX"
     transform="matrix(1.3333333,0,0,-1.3333333,0,142.66667)">
    <g
       id="g10"
       transform="scale(0.1)">
      <path
         d="M 445.375,875.609 C 348.492,755.461 223.348,708.582 70.9336,738.258 67.4023,345.18 248.707,159.473 445.395,9.91016 640.016,157.504 824.613,346.336 819.512,737.895 661.242,708.5 543.133,754.117 445.375,875.609"
         style="fill:#ffffff;fill-opacity:1;fill-rule:evenodd;stroke:none"
         id="path12" />
      <path
         d="M 445.375,875.609 C 348.492,755.461 223.348,708.582 70.9336,738.258 67.4023,345.18 248.707,159.473 445.395,9.91016 640.016,157.504 824.613,346.336 819.512,737.895 661.242,708.5 543.133,754.117 445.375,875.609 Z"
         style="fill:none;stroke:#8e0927;stroke-width:6.70469;stroke-linecap:butt;stroke-linejoin:miter;stroke-miterlimit:2.61313;stroke-dasharray:none;stroke-opacity:1"
         id="path14" />
      <path
         d="M 736.172,434.719 C 693.285,317.141 608.551,194.91 445.215,62.0078 283.758,194.223 199.074,317.375 155.723,434.719 h 580.449"
         style="fill:#00613c;fill-opacity:1;fill-rule:evenodd;stroke:none"
         id="path16" />
      <path
         d="m 113.016,689.977 c 198.57,-2.086 255.66,37.98 332.214,122.976 C 527.859,730.449 582.637,687.406 777.516,689.969 776.762,611.863 769.07,533.66 742.664,453.426 H 149.141 c -27.164,81.215 -35.246,159.699 -36.125,236.551"
         style="fill:#870a28;fill-opacity:1;fill-rule:evenodd;stroke:none"
         id="path18" />
      <path
         d="m 351.984,672.824 c 6.641,-2.086 19.918,2.403 27.145,-11.59 3.594,-6.968 9.992,-14.683 12.141,-29.527 l 41.117,6.395 c -4.621,16.179 -1.422,16.55 -5.485,29.238 25.426,2.437 50.09,7.918 73.09,20.098 11.266,-9.446 21.317,-17.36 34.719,-22.84 -50.984,-28.535 -45.793,-51.641 -42.027,-66.696 l 20.101,-23.754 c -0.816,49.856 31.305,81.68 71.266,91.364 -27.336,14.769 -53.68,31.519 -78.574,51.16 C 460.004,700.676 403.855,682.613 380.305,700.23 l -28.321,-27.406"
         style="fill:#ffffff;fill-opacity:1;fill-rule:evenodd;stroke:none"
         id="path20" />
      <path
         d="m 310.953,556.609 c -0.148,-1.558 34.418,17.446 42.906,13.293 l -3.195,19.629 c 40.359,18.074 81.512,25.731 137.391,16.43 0.379,8.824 0.074,15.367 4.105,24.191 -18.562,3.348 -37.125,3.957 -56.14,5.477 -13.235,-1.219 -32.731,-3.254 -47.012,-7.758 -14.285,-4.508 -29.75,-10.582 -42.906,-11.867 -13.161,-1.285 -19.477,2.887 -31.497,5.934 -9.886,-11.411 -15.671,-16.434 -30.582,-29.668 12.067,2.769 30.243,-1.454 27.555,-29.211 l -0.625,-6.45"
         style="fill:#ffffff;fill-opacity:1;fill-rule:evenodd;stroke:none"
         id="path22" />
      <path
         d="m 527.992,623.879 c 39.324,-14.609 40.266,-0.856 57.176,0.476 l 10.008,-19.535 c -51.871,-15.398 -76.16,-77.183 -38.117,-112.449 -37.075,-7.055 -59.079,39.16 -29.477,95.438 1.707,3.254 -0.219,8.453 1.84,11.769 l -10.961,2.86 c 1.906,8.578 5.719,13.343 9.531,21.441"
         style="fill:#ffffff;fill-opacity:1;fill-rule:evenodd;stroke:none"
         id="path24" />
      <path
         d="m 550.863,567.18 c -4.289,-6.672 -8.101,-15.723 -8.578,-25.731 20.231,-6.965 31.742,-18.301 39.555,-45.226 0.234,-0.821 0.629,-1.602 0.949,-2.426 10.242,-26.328 60.828,-27 69.566,-18.102 2.223,10.164 -0.796,16.516 -10.003,19.059 -10.645,-0.082 -9.375,-10.719 -19.063,-8.102 -11.91,4.196 -18.453,9.371 -21.328,19.371 -4.289,14.93 4.152,31.02 27.047,36.379 l -11.438,15.723 c -22.632,-1.191 -45.347,-1.191 -66.707,9.055"
         style="fill:#ffffff;fill-opacity:1;fill-rule:evenodd;stroke:none"
         id="path26" />
      <path
         d="m 519.891,576.234 -5.243,1.426 -0.953,-4.762 -2.382,-0.953 -6.668,8.102 c -22.555,2.695 -45.11,2.855 -67.661,0.476 l -1.433,-26.21 c 26.687,2.066 52.574,0.957 76.719,-3.333 1.746,8.895 3.492,17.309 7.621,25.254"
         style="fill:#ffffff;fill-opacity:1;fill-rule:evenodd;stroke:none"
         id="path28" />
      <path
         d="m 389.461,598.203 -1.824,-131.457 38.343,1.828 1.825,20.996 28.297,1.825 4.566,-4.563 c -20.086,-55.383 -8.523,-88.852 34.687,-100.418 l 0.915,5.477 c -28.606,20.082 -32.864,70.902 4.566,97.679 l -11.867,23.735 c -22.219,5.898 -43.52,-10.157 -61.164,1.824 l 6.386,90.375 c -13.996,-1.215 -28.906,-0.606 -44.73,-7.301"
         style="fill:#ffffff;fill-opacity:1;fill-rule:evenodd;stroke:none"
         id="path30" />
      <path
         d="m 341.082,349.898 -4.566,-34.691 c 51.922,-11.152 108.754,-13.82 175.273,9.129 33.777,11.566 66.641,24.039 101.328,18.258 -6.695,10.043 25.867,71.207 53.863,35.601 l 15.52,-0.914 c -7,14 -6.695,21.606 14.605,33.782 -23.433,2.738 -40.472,0.91 -56.601,13.691 -71.055,-66.266 -179.992,-99.887 -299.422,-74.856"
         style="fill:#ffffff;fill-opacity:1;fill-rule:evenodd;stroke:none"
         id="path32" />
      <path
         d="m 484.402,464.918 c -5.933,-10.34 -8.668,-16.574 -7.304,-26.93 14.91,-1.367 27.996,-8.668 33.777,-19.625 l 0.457,48.383 -26.93,-1.828"
         style="fill:#ffffff;fill-opacity:1;fill-rule:evenodd;stroke:none"
         id="path34" />
      <path
         d="m 388.656,436.027 -4.215,-89.781 c 14.071,-2.133 25.024,-2.586 37.887,-2.285 l 2.738,92.203 -36.41,-0.137"
         style="fill:#ffffff;fill-opacity:1;fill-rule:evenodd;stroke:none"
         id="path36" />
      <path
         d="m 383.531,305.625 c 16.02,-2.023 29.778,-1.191 41.992,-1.789 3.321,-54.555 23.918,-76.563 69.559,-91.145 9.156,-2.925 20.398,-5.957 27.066,-10.226 -108.941,-10.192 -108.648,59.949 -157.332,6.39 l -13.238,18.715 c 16.371,15.395 25.961,45.563 31.953,78.055"
         style="fill:#ffffff;fill-opacity:1;fill-rule:evenodd;stroke:none"
         id="path38" />
      <path
         d="m 384.254,572.668 c -66.039,-6.445 -126.195,-43.762 -177.762,-126.203 -4.015,-5.77 -12.074,-14.766 -13.574,-16.453 6.746,-1.168 11.652,-6.391 14.762,-9.332 26.683,-48.395 56.031,-76.442 86.336,-92.27 4.297,11.305 5.203,22.613 6.785,33.922 -18.77,8.367 -59.481,45.238 -55.637,85.492 19.453,51.34 81.649,95.895 139.09,94.989 v 29.855"
         style="fill:#ffffff;fill-opacity:1;fill-rule:evenodd;stroke:none"
         id="path40" />
      <path
         d="m 313.113,515.285 c 11.563,10.09 24.098,17.262 38.575,18.613 l 1.359,-75.222 c 31.207,7.465 65.699,8.144 96.906,6.094 l -2.598,-24.411 c -31.886,-0.679 -67.171,-0.679 -99.738,-11.535 -4.972,-48.851 -9.273,-95.668 -23.746,-142.484 23.75,-7.91 35.734,-18.317 41.387,-29.852 l -10.856,-20.355 c -15.152,20.918 -30.082,32.004 -58.351,27.137 l -13.567,12.214 c 29.852,57.223 26.555,168.336 30.629,239.801"
         style="fill:#ffffff;fill-opacity:1;fill-rule:evenodd;stroke:none"
         id="path42" />
      <path
         d="m 367.973,208.992 c 3.054,1.02 12.211,-16.285 27.82,-20.695 0.758,-0.719 10.859,0.367 5.766,2.375 -5.094,2.008 -14.614,14.945 -20.356,30.191 0,0 -16.281,-12.886 -13.23,-11.871"
         style="fill:#ffffff;fill-opacity:1;fill-rule:evenodd;stroke:none"
         id="path44" />
      <path
         d="m 1049.55,596.164 v -23.785 h -57.019 v -28.992 h 57.019 v -23.785 h -57.019 v -53.25 H 960.18 v 129.812 h 89.37"
         style="fill:#656263;fill-opacity:1;fill-rule:nonzero;stroke:none"
         id="path46" />
      <path
         d="m 1174.07,490.141 v -23.789 h -98.95 v 129.812 h 32.35 V 490.141 h 66.6"
         style="fill:#656263;fill-opacity:1;fill-rule:nonzero;stroke:none"
         id="path48" />
      <path
         d="m 1288.44,596.164 h 32.35 v -73.676 c 0,-18.965 -5.61,-33.332 -16.84,-43.136 -11.2,-9.766 -27.22,-14.684 -48.02,-14.684 -20.58,0 -36.54,4.98 -47.89,14.875 -11.39,9.93 -17.06,24.168 -17.06,42.754 v 73.867 h 32.41 v -74.629 c 0,-9.035 2.98,-16.269 8.88,-21.722 5.93,-5.458 13.67,-8.184 23.28,-8.184 9.99,0 17.95,2.789 23.91,8.371 6,5.551 8.98,13.48 8.98,23.789 v 72.375"
         style="fill:#656263;fill-opacity:1;fill-rule:nonzero;stroke:none"
         id="path50" />
      <path
         d="m 1418.6,548.02 41.74,48.144 h 28.13 V 466.352 h -32.32 v 81.035 l -35.04,-40.723 h -4.92 l -35.01,40.723 v -81.035 h -32.36 v 129.812 h 28.17 l 41.61,-48.144"
         style="fill:#656263;fill-opacity:1;fill-rule:nonzero;stroke:none"
         id="path52" />
      <path
         d="M 1550.67,596.164 V 466.352 h -32.35 v 129.812 h 32.35"
         style="fill:#656263;fill-opacity:1;fill-rule:nonzero;stroke:none"
         id="path54" />
      <path
         d="M 1712.07,596.164 V 466.352 h -27.25 l -71.73,83.16 v -83.16 h -32.32 v 129.812 h 29.62 l 69.33,-79.355 v 79.355 h 32.35"
         style="fill:#656263;fill-opacity:1;fill-rule:nonzero;stroke:none"
         id="path56" />
      <path
         d="m 1837.29,490.141 v -23.789 h -95.69 v 129.812 h 94.38 v -23.785 h -62.06 v -27.246 h 59.21 v -23.789 h -59.21 v -31.203 h 63.37"
         style="fill:#656263;fill-opacity:1;fill-rule:nonzero;stroke:none"
         id="path58" />
      <path
         d="M 1993.52,596.164 V 466.352 h -27.25 l -71.73,83.16 v -83.16 h -32.33 v 129.812 h 29.63 l 69.33,-79.355 v 79.355 h 32.35"
         style="fill:#656263;fill-opacity:1;fill-rule:nonzero;stroke:none"
         id="path60" />
      <path
         d="m 2110.74,587.789 v -25.371 c -17.22,7.742 -30.92,11.641 -41.13,11.641 -5.84,0 -10.47,-0.985 -13.9,-2.95 -3.45,-1.933 -5.16,-4.535 -5.16,-7.738 0,-2.508 1.23,-4.855 3.7,-7.074 2.48,-2.219 8.54,-5.106 18.12,-8.656 9.61,-3.524 17.28,-6.789 23.05,-9.836 5.78,-3.043 10.72,-7.325 14.91,-12.813 4.19,-5.515 6.28,-12.492 6.28,-20.933 0,-11.985 -4.57,-21.567 -13.7,-28.7 -9.14,-7.105 -21.19,-10.691 -36.09,-10.691 -16.12,0 -31.72,4.187 -46.85,12.562 v 27.973 c 8.69,-5.836 16.37,-10.086 23.06,-12.75 6.69,-2.664 13.76,-3.996 21.28,-3.996 12.69,0 19.03,3.996 19.03,11.988 0,2.727 -1.27,5.297 -3.8,7.707 -2.54,2.442 -8.66,5.36 -18.37,8.848 -9.67,3.457 -17.35,6.691 -23.03,9.645 -5.67,2.976 -10.56,7.23 -14.68,12.75 -4.12,5.515 -6.19,12.558 -6.19,21.183 0,11.133 4.51,20.141 13.48,26.992 8.98,6.852 21,10.274 36.07,10.274 13.86,0 28.51,-3.364 43.92,-10.055"
         style="fill:#656263;fill-opacity:1;fill-rule:nonzero;stroke:none"
         id="path62" />
      <path
         d="m 2233.68,490.141 v -23.789 h -95.7 v 129.812 h 94.4 v -23.785 h -62.08 v -27.246 h 59.22 v -23.789 h -59.22 v -31.203 h 63.38"
         style="fill:#656263;fill-opacity:1;fill-rule:nonzero;stroke:none"
         id="path64" />
      <path
         d="m 959.949,404.18 h 61.441 v -14.692 h -44.949 v -32.14 h 44.949 V 342.66 H 976.441 V 288.988 H 959.949 V 404.18"
         style="fill:#656263;fill-opacity:1;fill-rule:nonzero;stroke:none"
         id="path66" />
      <path
         d="m 1095.57,405.813 c 17.82,0 32.65,-5.629 44.5,-16.887 11.82,-11.285 17.76,-25.414 17.76,-42.383 0,-17 -5.99,-31.043 -17.93,-42.191 -11.96,-11.118 -27.04,-16.688 -45.22,-16.688 -17.37,0 -31.86,5.57 -43.43,16.688 -11.57,11.148 -17.34,25.105 -17.34,41.851 0,17.223 5.83,31.438 17.48,42.723 11.65,11.258 26.37,16.887 44.18,16.887 z m 0.65,-15.649 c -13.17,0 -24.03,-4.141 -32.5,-12.383 -8.5,-8.246 -12.76,-18.773 -12.76,-31.578 0,-12.41 4.26,-22.742 12.79,-30.988 8.52,-8.246 19.19,-12.379 32,-12.379 12.86,0 23.58,4.219 32.19,12.605 8.61,8.414 12.89,18.887 12.89,31.438 0,12.187 -4.28,22.457 -12.89,30.789 -8.61,8.332 -19.16,12.496 -31.72,12.496"
         style="fill:#656263;fill-opacity:1;fill-rule:nonzero;stroke:none"
         id="path68" />
      <path
         d="m 1234.58,405.813 c 17.81,0 32.65,-5.629 44.49,-16.887 11.82,-11.285 17.76,-25.414 17.76,-42.383 0,-17 -5.99,-31.043 -17.93,-42.191 -11.95,-11.118 -27.04,-16.688 -45.22,-16.688 -17.37,0 -31.86,5.57 -43.43,16.688 -11.57,11.148 -17.33,25.105 -17.33,41.851 0,17.223 5.82,31.438 17.47,42.723 11.66,11.258 26.37,16.887 44.19,16.887 z m 0.64,-15.649 c -13.17,0 -24.03,-4.141 -32.5,-12.383 -8.5,-8.246 -12.75,-18.773 -12.75,-31.578 0,-12.41 4.25,-22.742 12.78,-30.988 8.52,-8.246 19.19,-12.379 32,-12.379 12.86,0 23.58,4.219 32.2,12.605 8.6,8.414 12.88,18.887 12.88,31.438 0,12.187 -4.28,22.457 -12.88,30.789 -8.62,8.332 -19.17,12.496 -31.73,12.496"
         style="fill:#656263;fill-opacity:1;fill-rule:nonzero;stroke:none"
         id="path70" />
      <path
         d="m 1296.24,404.348 h 96.2 V 389.656 H 1352.3 V 288.988 h -16.57 v 100.668 h -39.49 v 14.692"
         style="fill:#656263;fill-opacity:1;fill-rule:nonzero;stroke:none"
         id="path72" />
      <path
         d="m 1447.04,288.988 h -39.01 V 404.18 h 30.17 c 9.51,0 16.94,-1.293 22.26,-3.828 5.35,-2.559 9.4,-6.079 12.22,-10.555 2.81,-4.504 4.19,-9.684 4.19,-15.563 0,-11.312 -5.85,-19.418 -17.57,-24.316 8.42,-1.605 15.12,-5.066 20.1,-10.383 4.98,-5.351 7.46,-11.711 7.46,-19.14 0,-5.883 -1.52,-11.118 -4.53,-15.731 -3.04,-4.617 -7.46,-8.391 -13.31,-11.316 -5.86,-2.899 -13.2,-4.36 -21.98,-4.36 z m -8.33,100.5 h -14.19 v -34.617 h 10.98 c 8.78,0 15.03,1.66 18.74,5.039 3.72,3.348 5.57,7.68 5.57,13.004 0,11.059 -7.03,16.574 -21.1,16.574 z m 1.24,-49.308 h -15.43 v -36.528 h 16.24 c 9.04,0 15.14,0.7 18.35,2.106 3.21,1.41 5.8,3.605 7.77,6.562 1.94,2.981 2.92,6.16 2.92,9.567 0,3.515 -1.04,6.726 -3.09,9.652 -2.08,2.902 -5.01,5.066 -8.78,6.5 -3.8,1.438 -9.8,2.141 -17.98,2.141"
         style="fill:#656263;fill-opacity:1;fill-rule:nonzero;stroke:none"
         id="path74" />
      <path
         d="m 1543.26,404.828 h 11.62 l 51.53,-115.84 h -16.91 l -15.34,34.137 h -48.97 l -14.49,-34.137 h -16.92 z m 24.15,-67.039 -18.55,41.738 -17.22,-41.738 z"
         style="fill:#656263;fill-opacity:1;fill-rule:nonzero;stroke:none"
         id="path76" />
      <path
         d="m 1619.11,404.18 h 16.49 V 303.988 h 51.86 v -15 h -68.35 V 404.18"
         style="fill:#656263;fill-opacity:1;fill-rule:nonzero;stroke:none"
         id="path78" />
      <path
         d="m 1701.88,404.18 h 16.49 V 303.988 h 51.87 v -15 h -68.36 V 404.18"
         style="fill:#656263;fill-opacity:1;fill-rule:nonzero;stroke:none"
         id="path80" />
      <path
         d="M 1930.86,315.695 V 297.57 c -12.11,-6.613 -26.06,-9.906 -41.91,-9.906 -12.86,0 -23.75,2.59 -32.73,7.77 -8.95,5.148 -16.04,12.269 -21.28,21.332 -5.21,9.089 -7.82,18.882 -7.82,29.437 0,16.774 5.97,30.875 17.93,42.301 11.96,11.426 26.7,17.168 44.24,17.168 12.1,0 25.52,-3.18 40.33,-9.484 v -17.731 c -13.48,7.684 -26.66,11.535 -39.51,11.535 -13.18,0 -24.15,-4.164 -32.85,-12.492 -8.72,-8.332 -13.08,-18.742 -13.08,-31.297 0,-12.637 4.3,-23.023 12.86,-31.156 8.58,-8.133 19.55,-12.211 32.89,-12.211 13.96,0 27.61,4.305 40.93,12.859"
         style="fill:#656263;fill-opacity:1;fill-rule:nonzero;stroke:none"
         id="path82" />
      <path
         d="m 1951.12,404.18 h 16.49 V 303.988 h 51.87 v -15 h -68.36 V 404.18"
         style="fill:#656263;fill-opacity:1;fill-rule:nonzero;stroke:none"
         id="path84" />
      <path
         d="m 2114.04,404.18 h 16.58 v -65.379 c 0,-8.863 -0.64,-15.535 -1.94,-20.039 -1.3,-4.532 -2.9,-8.274 -4.79,-11.258 -1.88,-3.008 -4.22,-5.684 -6.98,-8.047 -9.11,-7.855 -21.05,-11.793 -35.77,-11.793 -15,0 -27.04,3.91 -36.1,11.707 -2.76,2.418 -5.07,5.125 -6.99,8.133 -1.88,2.984 -3.46,6.672 -4.69,11.004 -1.24,4.336 -1.86,11.148 -1.86,20.433 v 65.239 h 16.58 v -65.379 c 0,-10.836 1.24,-18.379 3.71,-22.598 2.48,-4.25 6.25,-7.629 11.29,-10.187 5.06,-2.563 11.03,-3.832 17.9,-3.832 9.79,0 17.75,2.562 23.92,7.656 3.23,2.762 5.57,5.996 7.01,9.738 1.4,3.746 2.13,10.133 2.13,19.223 v 65.379"
         style="fill:#656263;fill-opacity:1;fill-rule:nonzero;stroke:none"
         id="path86" />
      <path
         d="m 2192.45,288.988 h -39 V 404.18 h 30.16 c 9.52,0 16.95,-1.293 22.27,-3.828 5.34,-2.559 9.4,-6.079 12.21,-10.555 2.82,-4.504 4.2,-9.684 4.2,-15.563 0,-11.312 -5.86,-19.418 -17.57,-24.316 8.42,-1.605 15.12,-5.066 20.1,-10.383 4.98,-5.351 7.45,-11.711 7.45,-19.14 0,-5.883 -1.52,-11.118 -4.52,-15.731 -3.04,-4.617 -7.46,-8.391 -13.32,-11.316 -5.85,-2.899 -13.2,-4.36 -21.98,-4.36 z m -8.33,100.5 h -14.18 v -34.617 h 10.97 c 8.79,0 15.03,1.66 18.75,5.039 3.71,3.348 5.57,7.68 5.57,13.004 0,11.059 -7.03,16.574 -21.11,16.574 z m 1.24,-49.308 h -15.42 v -36.528 h 16.24 c 9.03,0 15.14,0.7 18.35,2.106 3.2,1.41 5.79,3.605 7.76,6.562 1.94,2.981 2.93,6.16 2.93,9.567 0,3.515 -1.04,6.726 -3.09,9.652 -2.09,2.902 -5.02,5.066 -8.79,6.5 -3.79,1.438 -9.79,2.141 -17.98,2.141"
         style="fill:#656263;fill-opacity:1;fill-rule:nonzero;stroke:none"
         id="path88" />
      <path
         d="M 61,918.449 74.1094,877.844 116.777,877.926 82.2109,852.91 95.4727,812.352 61,837.5 26.5273,812.352 39.793,852.91 5.22266,877.926 47.8945,877.844 61,918.449"
         style="fill:#fab20b;fill-opacity:1;fill-rule:evenodd;stroke:none"
         id="path90" />
      <path
         d="m 445.25,1060.2 13.105,-40.61 42.672,0.09 -34.57,-25.02 13.262,-40.555 -34.469,25.149 -34.477,-25.149 13.266,40.555 -34.57,25.02 42.672,-0.09 13.109,40.61"
         style="fill:#fab20b;fill-opacity:1;fill-rule:evenodd;stroke:none"
         id="path92" />
      <path
         d="m 829.129,918.449 13.109,-40.605 42.672,0.082 -34.57,-25.016 13.262,-40.558 -34.473,25.148 -34.473,-25.148 13.266,40.558 -34.57,25.016 42.671,-0.082 13.106,40.605"
         style="fill:#fab20b;fill-opacity:1;fill-rule:evenodd;stroke:none"
         id="path94" />
    </g>
  </g>
</svg>
